<?xml version="1.0" encoding="UTF-8" standalone="no"?>
<svg
   version="1.1"
   x="0px"
   y="0px"
   viewBox="0 0 128 127.99999"
   xml:space="preserve"
   id="svg7"
   sodipodi:docname="idle_state.svg"
   width="128"
   height="128"
   inkscape:version="1.3.2 (091e20ef0f, 2023-11-25, custom)"
   xmlns:inkscape="http://www.inkscape.org/namespaces/inkscape"
   xmlns:sodipodi="http://sodipodi.sourceforge.net/DTD/sodipodi-0.dtd"
   xmlns="http://www.w3.org/2000/svg"
   xmlns:svg="http://www.w3.org/2000/svg"><defs
     id="defs7" /><sodipodi:namedview
     id="namedview7"
     pagecolor="#ffffff"
     bordercolor="#000000"
     borderopacity="0.25"
     inkscape:showpageshadow="2"
     inkscape:pageopacity="0.0"
     inkscape:pagecheckerboard="0"
     inkscape:deskcolor="#d1d1d1"
     inkscape:zoom="1.5642961"
     inkscape:cx="243.87966"
     inkscape:cy="279.99814"
     inkscape:window-width="1920"
     inkscape:window-height="1080"
     inkscape:window-x="0"
     inkscape:window-y="0"
     inkscape:window-maximized="1"
     inkscape:current-layer="svg7" /><g
     id="g6"
     transform="matrix(0.2528678,0,0,0.2528678,2.3006364,7.3580841)"
     style="fill:#e0e0e0;fill-opacity:1"><path
       d="m 117.663,397.87 c 9.01,0 16.447,-6.757 17.301,-15.717 l 1.013,-10.627 c -0.345,0.097 -0.701,0.165 -1.077,0.165 H 21.655 C 9.715,371.691 0,381.396 0,393.325 c 0,11.929 9.715,21.634 21.655,21.634 h 23.049 c 3.441,-9.933 12.889,-17.089 23.985,-17.089 z"
       id="path1"
       style="fill:#e0e0e0;fill-opacity:1" /><path
       d="m 379.526,284.085 c -3.417,5.709 -5.696,10.75 -6.593,14.577 -2.39,10.207 -0.649,29.534 10.7,40.545 11.352,11.012 30.744,12.18 40.883,9.49 3.803,-1.008 8.778,-3.434 14.392,-7.015 8.69,-5.548 16.766,-12.579 24,-20.897 25.329,-29.124 28.053,-52.585 8.327,-71.721 -8.355,-8.105 -17.37,-12.166 -27.142,-12.166 -13.3,0 -28.003,7.52 -44.371,22.599 -8.11,7.474 -14.905,15.746 -20.196,24.588 z"
       id="path2"
       style="fill:#e0e0e0;fill-opacity:1" /><path
       d="M 487.019,381.614 471.74,322.727 c -0.904,1.096 -1.827,2.197 -2.794,3.308 -7.738,8.896 -16.396,16.431 -25.733,22.392 -1.967,1.255 -3.849,2.362 -5.661,3.352 l 5.876,16.638 c 1.648,4.665 0.927,9.863 -1.931,13.903 -2.861,4.045 -7.528,6.46 -12.484,6.46 -4.67,0 -9.021,-2.09 -11.938,-5.733 l -22.699,-28.349 c -5.887,-2.031 -11.573,-5.151 -16.312,-9.749 -14.356,-13.928 -15.544,-36.901 -12.919,-48.111 0.021,-0.092 0.052,-0.19 0.075,-0.283 -3.743,-2.407 -7.66,-4.563 -11.699,-6.395 l -0.46,-0.207 c -7.873,-3.518 -16.892,-3.411 -24.731,0.3 -7.915,3.746 -13.775,10.734 -16.079,19.173 l -20.742,75.992 c -4.735,17.351 4.933,35.397 22.01,41.086 l 61.991,20.646 c 8.611,2.87 17.952,-1.798 20.821,-10.4 2.82,-8.451 -1.728,-17.739 -10.136,-20.704 L 345.05,401.537 c -9.133,-3.222 -14.249,-12.731 -11.9,-22.121 l 9.592,-38.329 c 0.535,-2.143 2.705,-3.451 4.851,-2.909 2.144,0.536 3.446,2.708 2.909,4.851 l -9.59,38.329 c -1.342,5.362 1.581,10.795 6.799,12.635 l 41.145,14.509 c 5.639,1.988 10.103,5.893 12.927,10.73 h 56.102 c 9.392,0 18.072,-4.258 23.815,-11.682 5.733,-7.413 7.672,-16.866 5.319,-25.936 z"
       id="path3"
       style="fill:#e0e0e0;fill-opacity:1" /><path
       d="m 426.566,356.43 c -3.322,0.881 -7.705,1.454 -12.598,1.454 -2.28,0 -4.673,-0.131 -7.12,-0.406 l 16.47,20.57 c 1.391,1.736 3.465,2.732 5.692,2.732 2.399,0 4.568,-1.122 5.953,-3.079 1.381,-1.952 1.716,-4.365 0.919,-6.619 l -5.604,-15.869 c -1.295,0.498 -2.534,0.905 -3.712,1.217 z"
       id="path4"
       style="fill:#e0e0e0;fill-opacity:1" /><path
       d="m 283.791,383.311 20.742,-75.992 c 1.072,-3.927 2.756,-7.602 4.949,-10.921 l -35.127,10.028 c -18.509,5.283 -38.906,4.195 -57.432,-3.063 -10.592,-4.149 -21.463,-5.605 -32.318,-4.327 l -0.549,0.066 c -19.44,2.459 -34.904,18.517 -36.778,38.183 l -4.35,45.629 c -1.248,13.088 -12.109,22.957 -25.266,22.957 H 68.689 c -9.583,0 -17.379,7.788 -17.379,17.361 0,9.573 7.796,17.361 17.379,17.361 h 85.92 c 17.494,0 31.999,-13.114 33.739,-30.506 l 5.139,-51.339 c 0.221,-2.198 2.181,-3.806 4.379,-3.582 2.198,0.221 3.802,2.181 3.582,4.379 l -5.139,51.339 c -0.138,1.382 -0.344,2.74 -0.609,4.075 h 92.061 c -5.264,-9.304 -6.989,-20.588 -3.97,-31.648 z"
       id="path5"
       style="fill:#e0e0e0;fill-opacity:1" /><path
       d="m 252.552,214.16 c 28.013,0 55.732,-4.553 80.162,-13.168 0.43,-0.152 0.88,-0.228 1.33,-0.228 0.435,0 0.869,0.071 1.286,0.212 l 49.446,16.792 -13.107,-31.87 c -0.724,-1.76 -0.107,-3.786 1.473,-4.844 29.95,-20.068 46.444,-46.34 46.444,-73.975 C 419.586,48.036 344.654,0 252.552,0 160.45,0 85.518,48.036 85.518,107.08 c 0,59.044 74.931,107.08 167.034,107.08 z M 338.069,89.991 c 9.446,0 17.103,7.651 17.103,17.089 0,9.438 -7.657,17.089 -17.103,17.089 -9.446,0 -17.103,-7.651 -17.103,-17.089 0,-9.438 7.657,-17.089 17.103,-17.089 z m -85.517,0 c 9.446,0 17.103,7.651 17.103,17.089 0,9.438 -7.657,17.089 -17.103,17.089 -9.446,0 -17.104,-7.651 -17.104,-17.089 0,-9.438 7.658,-17.089 17.104,-17.089 z m -85.518,0 c 9.446,0 17.104,7.651 17.104,17.089 0,9.438 -7.657,17.089 -17.104,17.089 -9.446,0 -17.103,-7.651 -17.103,-17.089 0,-9.438 7.658,-17.089 17.103,-17.089 z"
       id="path6"
       style="fill:#e0e0e0;fill-opacity:1" /></g></svg>
