<?xml version="1.0" encoding="UTF-8" standalone="no"?>
<svg
   version="1.1"
   x="0px"
   y="0px"
   viewBox="0 0 128 128"
   enable-background="new 0 0 32 32"
   xml:space="preserve"
   id="svg6"
   sodipodi:docname="state_machine_icon.svg"
   width="128"
   height="128"
   inkscape:version="1.3.2 (091e20ef0f, 2023-11-25, custom)"
   xmlns:inkscape="http://www.inkscape.org/namespaces/inkscape"
   xmlns:sodipodi="http://sodipodi.sourceforge.net/DTD/sodipodi-0.dtd"
   xmlns="http://www.w3.org/2000/svg"
   xmlns:svg="http://www.w3.org/2000/svg"><defs
     id="defs6" /><sodipodi:namedview
     id="namedview6"
     pagecolor="#ffffff"
     bordercolor="#000000"
     borderopacity="0.25"
     inkscape:showpageshadow="2"
     inkscape:pageopacity="0.0"
     inkscape:pagecheckerboard="0"
     inkscape:deskcolor="#d1d1d1"
     showgrid="true"
     inkscape:zoom="4.0128068"
     inkscape:cx="75.383644"
     inkscape:cy="55.322872"
     inkscape:window-width="1920"
     inkscape:window-height="1080"
     inkscape:window-x="0"
     inkscape:window-y="0"
     inkscape:window-maximized="1"
     inkscape:current-layer="svg6"><inkscape:grid
       id="grid6"
       units="px"
       originx="0"
       originy="0"
       spacingx="1"
       spacingy="1"
       empcolor="#0099e5"
       empopacity="0.30196078"
       color="#0099e5"
       opacity="0.14901961"
       empspacing="5"
       dotted="false"
       gridanglex="30"
       gridanglez="30"
       visible="true" /></sodipodi:namedview><g
     id="g5"
     style="fill:#e0e0e0;fill-opacity:1"
     transform="matrix(4.1193093,0,0,4.1193093,-1.9089493,-1.9089493)"><polygon
       points="20,4 27,4 29,2 22,2 "
       id="polygon1"
       style="fill:#e0e0e0;fill-opacity:1" /><polygon
       points="28,12 30,10 30,3 28,5 "
       id="polygon2"
       style="fill:#e0e0e0;fill-opacity:1" /><path
       d="m 19,6 v 1 h 2 c 1.1,0 2,0.9 2,2 0,1.1 -0.9,2 -2,2 h -2 v 1 c 0,0.6 0.4,1 1,1 h 6 c 0.6,0 1,-0.4 1,-1 V 5 h -7 c -0.6,0 -1,0.4 -1,1 z"
       id="path2"
       style="fill:#e0e0e0;fill-opacity:1" /><polygon
       points="10,2 3,2 5,4 12,4 "
       id="polygon3"
       style="fill:#e0e0e0;fill-opacity:1" /><polygon
       points="4,12 4,5 2,3 2,10 "
       id="polygon4"
       style="fill:#e0e0e0;fill-opacity:1" /><path
       d="M 13,12 V 11 H 11 C 9.9,11 9,10.1 9,9 9,7.9 9.9,7 11,7 h 2 V 6 C 13,5.4 12.6,5 12,5 H 5 v 7 c 0,0.6 0.4,1 1,1 h 6 c 0.6,0 1,-0.4 1,-1 z"
       id="path4"
       style="fill:#e0e0e0;fill-opacity:1" /><path
       d="m 23.9,19.7 -2,-3.5 c -0.1,-0.2 -0.4,-0.4 -0.6,-0.5 -0.3,-0.1 -0.5,0 -0.8,0.1 l -0.6,0.3 c -0.3,-0.2 -0.6,-0.4 -1,-0.6 V 15 c 0,-0.6 -0.4,-1 -1,-1 h -1 v -4 h 4 c 0.6,0 1,-0.4 1,-1 0,-0.6 -0.4,-1 -1,-1 H 11 c -0.6,0 -1,0.4 -1,1 0,0.6 0.4,1 1,1 h 4 v 4 h -1 c -0.6,0 -1,0.4 -1,1 v 0.7 c -0.3,0.2 -0.7,0.3 -1,0.6 L 11.4,16 C 11.2,15.9 10.9,15.8 10.6,15.9 10.3,16 10.1,16.1 10,16.4 L 8,19.9 C 7.7,20.4 7.9,21 8.4,21.3 L 9,21.6 c 0,0.2 0,0.4 0,0.6 0,0.2 0,0.4 0,0.6 L 8.4,23.1 C 7.9,23.4 7.8,24 8,24.5 l 2,3.5 c 0.1,0.2 0.4,0.4 0.6,0.5 0.3,0.1 0.5,0 0.8,-0.1 L 12,28.1 c 0.3,0.2 0.6,0.4 1,0.6 V 29 c 0,0.6 0.4,1 1,1 h 4 c 0.6,0 1,-0.4 1,-1 v -0.7 c 0.3,-0.2 0.7,-0.3 1,-0.6 l 0.6,0.3 c 0.2,0.1 0.5,0.2 0.8,0.1 0.3,-0.1 0.5,-0.2 0.6,-0.5 l 2,-3.5 C 24.3,23.6 24.1,23 23.6,22.7 L 23,22.4 c 0,-0.2 0,-0.4 0,-0.6 0,-0.2 0,-0.4 0,-0.6 l 0.6,-0.3 c 0.4,-0.1 0.5,-0.7 0.3,-1.2 z M 16,26 c -2.2,0 -4,-1.8 -4,-4 0,-2.2 1.8,-4 4,-4 2.2,0 4,1.8 4,4 0,2.2 -1.8,4 -4,4 z"
       id="path5"
       style="fill:#e0e0e0;fill-opacity:1" /></g></svg>
