<?xml version="1.0" encoding="UTF-8" standalone="no"?>
<svg
   version="1.1"
   x="0px"
   y="0px"
   viewBox="0 0 128 128"
   xml:space="preserve"
   id="svg2"
   sodipodi:docname="swim_state_icon.svg"
   width="128"
   height="128"
   inkscape:version="1.3.2 (091e20ef0f, 2023-11-25, custom)"
   xmlns:inkscape="http://www.inkscape.org/namespaces/inkscape"
   xmlns:sodipodi="http://sodipodi.sourceforge.net/DTD/sodipodi-0.dtd"
   xmlns="http://www.w3.org/2000/svg"
   xmlns:svg="http://www.w3.org/2000/svg"><defs
     id="defs2" /><sodipodi:namedview
     id="namedview2"
     pagecolor="#ffffff"
     bordercolor="#000000"
     borderopacity="0.25"
     inkscape:showpageshadow="2"
     inkscape:pageopacity="0.0"
     inkscape:pagecheckerboard="0"
     inkscape:deskcolor="#d1d1d1"
     inkscape:zoom="2.36"
     inkscape:cx="49.788136"
     inkscape:cy="62.288136"
     inkscape:window-width="1920"
     inkscape:window-height="1080"
     inkscape:window-x="0"
     inkscape:window-y="0"
     inkscape:window-maximized="1"
     inkscape:current-layer="svg2" /><g
     id="g1"
     style="fill:#e0e0e0;fill-opacity:1"
     transform="matrix(1.191715,0,0,1.191715,4.4124632,4.4146882)"><path
       style="fill:#e0e0e0;fill-opacity:1"
       d="m 0,67.094 c 0,-2.098 1.701,-3.799 3.8,-3.799 6.073,0 9.236,2.836 11.776,5.115 2.129,1.911 3.538,3.173 6.703,3.173 3.164,0 4.571,-1.262 6.701,-3.173 2.542,-2.279 5.703,-5.115 11.776,-5.115 6.075,0 9.236,2.836 11.775,5.115 2.13,1.911 3.538,3.173 6.704,3.173 3.168,0 4.574,-1.262 6.703,-3.173 2.543,-2.279 5.703,-5.115 11.779,-5.115 6.074,0 9.236,2.836 11.777,5.115 2.131,1.911 3.539,3.173 6.705,3.173 2.097,0 3.799,1.7 3.799,3.8 0,2.098 -1.702,3.798 -3.799,3.798 -6.076,0 -9.236,-2.836 -11.776,-5.114 -2.132,-1.911 -3.541,-3.174 -6.706,-3.174 -3.166,0 -4.574,1.263 -6.704,3.174 -2.542,2.278 -5.703,5.114 -11.778,5.114 -6.073,0 -9.236,-2.836 -11.776,-5.114 -2.129,-1.911 -3.538,-3.174 -6.704,-3.174 -3.166,0 -4.572,1.263 -6.702,3.174 -2.542,2.278 -5.703,5.114 -11.776,5.114 -6.075,0 -9.236,-2.836 -11.778,-5.114 C 8.369,72.156 6.963,70.893 3.797,70.893 1.701,70.893 0,69.191 0,67.094 Z m 15.576,-2.828 c 2.129,1.911 3.538,3.174 6.703,3.174 3.164,0 4.571,-1.263 6.701,-3.174 2.542,-2.277 5.703,-5.114 11.776,-5.114 6.075,0 9.236,2.837 11.775,5.114 2.13,1.911 3.538,3.174 6.704,3.174 3.168,0 4.574,-1.263 6.703,-3.174 2.543,-2.277 5.703,-5.114 11.779,-5.114 0.588,0 1.141,0.034 1.677,0.084 L 58.462,24.038 79.491,19.277 c 3.536,-0.8 5.751,-4.314 4.951,-7.849 -0.8,-3.535 -4.315,-5.749 -7.849,-4.951 l -29.568,6.695 c -2.014,0.456 -3.697,1.835 -4.539,3.72 -0.845,1.887 -0.75,4.06 0.254,5.866 L 50.573,36.862 9.332,60.1 c 2.733,1.025 4.619,2.709 6.244,4.166 z M 73.031,37.897 c 0,6.543 5.305,11.848 11.848,11.848 6.544,0 11.85,-5.305 11.85,-11.848 0,-6.544 -5.306,-11.848 -11.85,-11.848 -6.543,0 -11.848,5.305 -11.848,11.848 z m 23.17,48.191 c -3.166,0 -4.574,-1.262 -6.705,-3.174 -2.541,-2.277 -5.703,-5.113 -11.777,-5.113 -6.076,0 -9.236,2.836 -11.779,5.113 -2.129,1.912 -3.535,3.174 -6.703,3.174 -3.166,0 -4.574,-1.262 -6.704,-3.174 -2.539,-2.277 -5.701,-5.113 -11.775,-5.113 -6.073,0 -9.234,2.836 -11.776,5.113 -2.13,1.912 -3.538,3.174 -6.701,3.174 -3.166,0 -4.574,-1.262 -6.703,-3.174 -2.541,-2.277 -5.704,-5.113 -11.776,-5.113 -2.099,0 -3.8,1.699 -3.8,3.798 0,2.098 1.701,3.799 3.8,3.799 3.166,0 4.572,1.263 6.702,3.173 2.542,2.279 5.703,5.114 11.778,5.114 6.073,0 9.234,-2.835 11.776,-5.114 2.13,-1.91 3.536,-3.173 6.702,-3.173 3.166,0 4.574,1.263 6.704,3.173 2.54,2.279 5.703,5.114 11.776,5.114 6.075,0 9.236,-2.835 11.778,-5.113 2.13,-1.911 3.538,-3.174 6.704,-3.174 3.165,0 4.574,1.263 6.706,3.173 2.54,2.279 5.7,5.114 11.776,5.114 2.097,0 3.799,-1.7 3.799,-3.798 0,-2.098 -1.705,-3.799 -3.802,-3.799 z"
       fill-rule="evenodd"
       clip-rule="evenodd"
       id="path1" /></g></svg>
